<?xml version="1.0" encoding="utf-8"?>
<!-- Generator: Adobe Illustrator 23.0.1, SVG Export Plug-In . SVG Version: 6.00 Build 0)  -->
<svg version="1.1" id="Layer_1" xmlns="http://www.w3.org/2000/svg" xmlns:xlink="http://www.w3.org/1999/xlink" x="0px" y="0px"
	 viewBox="0 0 412 592" style="enable-background:new 0 0 412 592;" xml:space="preserve">
<g>
	<path d="M206,582.6c-29,0-55.4-3.9-79.4-11.6c-23.9-7.8-44.4-18.8-61.5-33c-17.1-14.2-30.3-31.4-39.8-51.6
		c-9.4-20.2-14.2-42.7-14.2-67.5c0-33.1,8.2-61.1,24.5-84c16.3-22.9,41.7-39.9,76.1-51c-27.4-11.4-47.9-27.6-61.5-48.5
		s-20.4-46.2-20.4-75.7c0-21.2,4.3-41,13-59.4c8.7-18.4,20.8-34.3,36.3-47.9c15.5-13.6,34.1-24.2,55.7-31.8
		C156.4,12.8,180.1,9,206,9c25.9,0,49.6,3.8,71.2,11.4c21.6,7.6,40.2,18.2,55.7,31.8c15.5,13.6,27.6,29.6,36.3,47.9
		c8.7,18.4,13,38.2,13,59.4c0,29.5-6.9,54.7-20.6,75.7c-13.7,21-34.2,37.1-61.3,48.5c34.4,11.1,59.8,28.1,76.1,51
		c16.3,22.9,24.5,50.9,24.5,84c0,24.8-4.7,47.4-14.2,67.5c-9.4,20.2-22.7,37.4-39.8,51.6c-17.1,14.2-37.6,25.2-61.5,33
		C261.4,578.7,235,582.6,206,582.6z M206,507.7c15.8,0,29.6-2.3,41.5-6.8c11.9-4.5,21.9-10.8,30.1-18.8c8.2-8,14.3-17.6,18.4-28.7
		c4.1-11.1,6.2-23.2,6.2-36.1c0-30.8-8.5-54.1-25.6-69.9c-17.1-15.8-40.6-23.7-70.6-23.7c-30,0-53.6,7.9-70.6,23.7
		c-17.1,15.8-25.6,39.1-25.6,69.9c0,12.9,2.1,25,6.2,36.1c4.1,11.1,10.3,20.7,18.4,28.7c8.2,8,18.2,14.3,30.1,18.8
		C176.4,505.5,190.2,507.7,206,507.7z M206,248.5c15.5,0,28.6-2.5,39.2-7.4c10.6-4.9,19.1-11.4,25.6-19.6
		c6.5-8.2,11.1-17.5,13.8-27.9c2.7-10.5,4.1-21.3,4.1-32.4c0-10.6-1.7-20.7-5-30.3c-3.4-9.6-8.4-18-15.1-25.4
		c-6.7-7.4-15.3-13.3-25.6-17.7c-10.4-4.4-22.6-6.6-36.9-6.6c-14.2,0-26.5,2.2-36.9,6.6c-10.4,4.4-19,10.3-25.8,17.7
		c-6.9,7.4-11.9,15.9-15.1,25.4c-3.2,9.6-4.9,19.7-4.9,30.3c0,11.1,1.4,21.9,4.1,32.4c2.7,10.5,7.3,19.8,13.8,27.9
		c6.5,8.2,15,14.7,25.6,19.6C177.4,246,190.5,248.5,206,248.5z"/>
</g>
</svg>
