<svg xmlns="http://www.w3.org/2000/svg" width="15" height="17" viewBox="0 0 15 17">
  <path id="trash-alt-solid" d="M1.071,15.406A1.6,1.6,0,0,0,2.679,17h9.643a1.6,1.6,0,0,0,1.607-1.594V4.25H1.071Zm9.107-8.5a.536.536,0,0,1,1.071,0v7.437a.536.536,0,0,1-1.071,0Zm-3.214,0a.536.536,0,0,1,1.071,0v7.437a.536.536,0,0,1-1.071,0Zm-3.214,0a.536.536,0,0,1,1.071,0v7.437a.536.536,0,0,1-1.071,0ZM14.464,1.062H10.446L10.132.441A.8.8,0,0,0,9.412,0H5.585a.8.8,0,0,0-.717.442l-.315.621H.536A.533.533,0,0,0,0,1.594V2.656a.533.533,0,0,0,.536.531H14.464A.533.533,0,0,0,15,2.656V1.594A.533.533,0,0,0,14.464,1.062Z" transform="translate(0 0)" fill="#e74c3c"/>
</svg>
